HIERARCHY
ROOT Hips
{
	OFFSET -0.001795 -0.223333 0.028219
	CHANNELS 6 Xposition Yposition Zposition Zrotation Yrotation Xrotation 
	JOINT LeftUpLeg
	{
		OFFSET 0.069520 -0.091406 -0.006815
		CHANNELS 3 Zrotation Yrotation Xrotation
		JOINT LeftLeg
		{
			OFFSET 0.034277 -0.375199 -0.004496
			CHANNELS 3 Zrotation Yrotation Xrotation
			JOINT LeftFoot
			{
				OFFSET -0.013596 -0.397961 -0.043693
				CHANNELS 3 Zrotation Yrotation Xrotation
				JOINT LeftToe
				{
					OFFSET 0.026358 -0.055791 0.119288
					CHANNELS 3 Zrotation Yrotation Xrotation
					End Site
					{
						OFFSET 0.000000 0.000000 0.000000
					}
				}
			}
		}
	}
	JOINT RightUpLeg
	{
		OFFSET -0.067670 -0.090522 -0.004320
		CHANNELS 3 Zrotation Yrotation Xrotation
		JOINT RightLeg
		{
			OFFSET -0.038290 -0.382569 -0.008850
			CHANNELS 3 Zrotation Yrotation Xrotation
			JOINT RightFoot
			{
				OFFSET 0.015774 -0.398415 -0.042312
				CHANNELS 3 Zrotation Yrotation Xrotation
				JOINT RightToe
				{
					OFFSET -0.025372 -0.048144 0.123348
					CHANNELS 3 Zrotation Yrotation Xrotation
					End Site
					{
						OFFSET 0.000000 0.000000 0.000000
					}
				}
			}
		}
	}
	JOINT Spine
	{
		OFFSET -0.002533 0.108963 -0.026696
		CHANNELS 3 Zrotation Yrotation Xrotation
		JOINT Spine1
		{
			OFFSET 0.005487 0.135180 0.001092
			CHANNELS 3 Zrotation Yrotation Xrotation
			JOINT Spine2
			{
				OFFSET 0.001457 0.052922 0.025425
				CHANNELS 3 Zrotation Yrotation Xrotation
				JOINT Neck
				{
					OFFSET -0.002778 0.213870 -0.042857
					CHANNELS 3 Zrotation Yrotation Xrotation
					JOINT Head
					{
						OFFSET 0.005152 0.064970 0.051349
						CHANNELS 3 Zrotation Yrotation Xrotation
						End Site
						{
							OFFSET 0.000000 0.000000 0.000000
						}
					}
				}
				JOINT LeftShoulder
				{
					OFFSET 0.078845 0.121749 -0.034090
					CHANNELS 3 Zrotation Yrotation Xrotation
					JOINT LeftArm
					{
						OFFSET 0.090977 0.030469 -0.008868
						CHANNELS 3 Zrotation Yrotation Xrotation
						JOINT LeftForeArm
						{
							OFFSET 0.259612 -0.012772 -0.027456
							CHANNELS 3 Zrotation Yrotation Xrotation
							JOINT LeftHand
							{
								OFFSET 0.249234 0.008986 -0.001171
								CHANNELS 3 Zrotation Yrotation Xrotation
								End Site
								{
									OFFSET 0.000000 0.000000 0.000000
								}
							}
						}
					}
				}
				JOINT RightShoulder
				{
					OFFSET -0.081759 0.118833 -0.038615
					CHANNELS 3 Zrotation Yrotation Xrotation
					JOINT RightArm
					{
						OFFSET -0.096012 0.032551 -0.009143
						CHANNELS 3 Zrotation Yrotation Xrotation
						JOINT RightForeArm
						{
							OFFSET -0.253742 -0.013329 -0.021401
							CHANNELS 3 Zrotation Yrotation Xrotation
							JOINT RightHand
							{
								OFFSET -0.255298 0.007772 -0.005559
								CHANNELS 3 Zrotation Yrotation Xrotation
								End Site
								{
									OFFSET 0.000000 0.000000 0.000000
								}
							}
						}
					}
				}
			}
		}
	}
}
MOTION
Frames: 6
Frame Time: 0.050000
-0.122061 1.020595 0.085044 -5.606404 1.985295 0.124951 2.615457 1.013402 17.220983 2.078465 -1.615250 23.046550 0.198725 0.675908 0.532233 0.000000 0.000000 0.000000 7.280682 3.697951 -23.754499 3.856521 -0.432672 19.661152 -7.075589 -18.145639 23.993539 0.000000 0.000000 0.000000 -2.046796 -0.526332 19.086707 7.712927 -4.669908 7.525935 0.881245 -11.372372 -7.192057 -5.889732 5.440053 8.221858 0.000000 0.000000 0.000000 -26.087285 0.961152 -0.237547 -28.359401 -4.738382 -2.602126 -137.767614 -61.153644 123.834867 0.000000 0.000000 0.000000 5.854931 -3.752808 -2.702494 28.869330 -25.147538 -7.450887 90.784380 44.698769 41.555847 0.000000 0.000000 0.000000 
-0.121625 1.009914 0.085919 -4.115123 -0.209759 -0.245776 1.580447 0.696645 9.327216 -1.209605 -1.279256 52.599531 2.020421 7.608095 10.720119 0.000000 0.000000 0.000000 9.182295 2.599159 -15.340067 0.852585 0.249907 10.482240 -5.801107 -16.481794 20.397241 0.000000 0.000000 0.000000 -2.955160 -0.269298 17.854004 7.882002 -4.755954 8.223598 -0.571579 -8.551852 -6.104986 -7.315085 6.334978 6.930160 0.000000 0.000000 0.000000 -26.687295 2.430347 -1.964797 -28.245021 1.137810 -3.539679 -121.554219 -59.469802 99.044937 0.000000 0.000000 0.000000 11.626224 -0.537253 -2.647660 32.311788 -21.426625 -7.304494 92.550348 53.020345 52.962940 0.000000 0.000000 0.000000 
-0.122487 0.979883 0.084515 -3.389519 -4.499839 -2.221520 2.392242 -0.115177 -1.691172 -2.616598 1.683905 71.622368 5.135189 13.901414 20.511664 0.000000 0.000000 0.000000 9.869152 0.683454 -4.749137 0.059578 0.638041 13.496514 -5.976077 -16.413451 11.344068 0.000000 0.000000 0.000000 -4.009339 0.014255 18.758287 4.199764 -2.473900 8.242660 2.486196 -1.343078 -4.679204 -6.044360 4.755701 3.301152 0.000000 0.000000 0.000000 -28.477822 2.795473 -3.836935 -26.203582 8.431554 -4.294170 -102.242941 -56.869231 72.471459 0.000000 0.000000 0.000000 14.844434 1.143115 -1.734762 34.924991 -13.231838 -5.910480 105.499002 58.645554 73.005492 0.000000 0.000000 0.000000 
-0.123232 0.957202 0.079453 -1.715120 -8.034639 -2.598887 2.355887 -0.908549 -15.136824 -3.529396 4.984352 75.139071 8.569334 18.142980 14.244022 0.000000 0.000000 0.000000 7.001796 -0.984164 5.365718 -1.578901 1.188593 14.884641 -5.761893 -15.474172 7.415172 0.000000 0.000000 0.000000 -5.217385 0.409276 20.457545 -0.864044 0.564435 7.345194 5.032972 5.192730 -4.779570 -5.097216 3.839560 -1.243382 0.000000 0.000000 0.000000 -28.007232 3.585360 -5.723187 -22.576395 15.866096 -4.468293 -94.855194 -53.565696 60.764229 0.000000 0.000000 0.000000 15.701990 4.103668 0.428313 37.990202 -2.678965 -3.639339 117.459329 64.969841 95.483061 0.000000 0.000000 0.000000 
-0.122626 0.956611 0.076629 -1.231254 -10.348779 -2.210948 2.874746 -1.037936 -25.145912 -2.737531 4.078194 63.257621 8.831933 18.113311 8.778444 0.000000 0.000000 0.000000 3.267751 -1.697116 15.559151 -2.581276 1.305715 13.364450 -4.465905 -14.147067 12.448645 0.000000 0.000000 0.000000 -6.423047 0.787730 20.970654 -2.540079 1.422341 4.215724 5.104715 12.380495 -2.691085 -2.204053 1.595723 0.163378 0.000000 0.000000 0.000000 -26.244136 4.412509 -7.706562 -20.786005 21.365884 -4.653876 -93.840670 -50.874151 55.583896 0.000000 0.000000 0.000000 14.854938 4.536616 1.941993 38.227699 3.149793 -2.486133 130.745098 64.547364 115.305783 0.000000 0.000000 0.000000 
-0.121649 0.970290 0.080208 -0.395673 -9.544082 -1.458170 0.122804 -1.849888 -27.795122 -1.561450 1.132826 40.482710 7.105288 15.174689 12.666589 0.000000 0.000000 0.000000 -0.328511 -1.440120 21.882394 -1.921410 1.665145 19.058263 -4.748178 -14.836498 14.726366 0.000000 0.000000 0.000000 -7.280820 0.860221 19.506287 -5.355617 2.948205 4.509737 6.776129 15.090990 -4.449837 -0.848237 0.047422 3.050251 0.000000 0.000000 0.000000 -27.009193 6.410350 -9.891067 -15.532434 22.282382 -3.209720 -95.446587 -47.317009 52.940499 0.000000 0.000000 0.000000 13.686916 4.430018 2.280124 39.064646 3.192666 -2.452864 138.452414 64.064453 126.982998 0.000000 0.000000 0.000000 
